<svg version="1.2" xmlns="http://www.w3.org/2000/svg" viewBox="0 0 512 512" width="512" height="512">
	<title>copy-regular-svg</title>
	<style>
		.s0 { fill: #ffa500 } 
	</style>
	<path id="Layer" class="s0" d="m448 384h-192c-35.3 0-64-28.7-64-64v-256c0-35.3 28.7-64 64-64h140.1c12.7 0 24.9 5.1 33.9 14.1l67.9 67.9c9 9 14.1 21.2 14.1 33.9v204.1c0 35.3-28.7 64-64 64zm-384-256h96v48h-96c-8.8 0-16 7.2-16 16v256c0 8.8 7.2 16 16 16h192c8.8 0 16-7.2 16-16v-32h48v32c0 35.3-28.7 64-64 64h-192c-35.3 0-64-28.7-64-64v-256c0-35.3 28.7-64 64-64z"/>
</svg>